<?xml version="1.0" encoding="UTF-8"?>
<svg id="Layer_2" data-name="Layer 2" xmlns="http://www.w3.org/2000/svg" viewBox="0 0 820 187.64">
  <g id="Logos">
    <g>
      <path d="M32.61,48.11l-.05-23.52c.04-.34.32-.69.69-.77.26-.05.57-.02.84.26l35.5,35.52,10.11-10.1-21.59-21.59h-.01c-.97-.89-1.52-2.15-1.52-3.46,0-.05,0-23.61,0-23.61.01-.33.28-.72.67-.81.22-.05.55-.07.88.26l35.33,35.43L128.81.31c.23-.22.47-.31.68-.31.38,0,.89.27.89.88v23.91c0,1.31-.84,2.76-2,3.74l-.07.07-57.14,57.11c-.08.06-.62.76-1.57.76-.75,0-1.2-.4-1.37-.55l-34.17-34.13s-1.64-1.51-1.45-3.69ZM86.47,117.76c0-.95-.7-1.49-.76-1.57L28.61,59.05l-.07-.07c-.98-1.16-2.43-2-3.74-2H.88c-.61,0-.88.51-.88.89,0,.21.08.45.31.68l35.42,35.34L.3,129.21c-.32.33-.31.66-.26.88.09.39.48.66.81.68,0,0,23.56,0,23.61,0,1.31,0,2.56-.56,3.45-1.52h0s21.59-21.6,21.59-21.6l10.11,10.11-35.52,35.5c-.28.27-.31.58-.26.84.07.37.43.65.77.69l23.52-.05c2.17.19,3.69-1.45,3.69-1.45l34.13-34.17c.15-.17.55-.62.55-1.37ZM153.17,135.84l-34.17-34.13c-.17-.15-.62-.55-1.37-.55-.95,0-1.49.7-1.57.76l-57.14,57.11-.07.07c-1.16.98-1.99,2.43-1.99,3.74v23.91c0,.61.51.88.89.88.21,0,.45-.08.67-.31l35.34-35.42,35.33,35.43c.33.32.66.31.87.26.4-.09.66-.48.68-.81,0,0,0-23.56,0-23.61,0-1.31-.56-2.57-1.52-3.45h0s-21.58-21.59-21.58-21.59l10.11-10.11,35.5,35.52c.26.28.58.31.84.26.37-.07.65-.43.69-.77l-.05-23.52c.19-2.17-1.45-3.68-1.45-3.68ZM151.95,93.74l35.43-35.33c.32-.33.31-.66.26-.88-.09-.39-.48-.66-.81-.68,0,0-23.56,0-23.61,0-1.31,0-2.57.55-3.45,1.52h0s-21.59,21.59-21.59,21.59l-10.11-10.11,35.52-35.5c.28-.26.31-.58.26-.84-.07-.37-.43-.65-.77-.69l-23.52.05c-2.17-.19-3.69,1.45-3.69,1.45l-34.13,34.17c-.15.17-.55.62-.55,1.37,0,.95.7,1.49.76,1.57l57.11,57.14.07.07c.98,1.15,2.43,1.99,3.74,1.99h23.91c.61,0,.88-.51.88-.89,0-.21-.08-.45-.31-.68l-35.42-35.34Z" fill="#fff"/>
    </g>
  </g>
</svg>