<?xml version="1.0" encoding="UTF-8"?>
<svg id="Layer_2" xmlns="http://www.w3.org/2000/svg" version="1.1" viewBox="0 0 187.7 187.6">
  <!-- Generator: Adobe Illustrator 29.8.1, SVG Export Plug-In . SVG Version: 2.1.1 Build 2)  -->
  <defs>
    <style>
      .st0 {
        fill: #fff;
        opacity: 0.5; 
      }
    </style>
  </defs>
  <g id="Logos">
    <path class="st0" d="M32.6,48.1v-23.5c0-.3.3-.7.6-.8.3,0,.6,0,.8.3l35.5,35.5,10.1-10.1-21.6-21.6h0c-1-.9-1.5-2.1-1.5-3.5V.8c0-.3.3-.7.7-.8.2,0,.5,0,.9.3l35.3,35.4L128.8.3c.2-.2.5-.3.7-.3.4,0,.9.3.9.9v23.9c0,1.3-.8,2.8-2,3.7h0c0,0-57.1,57.2-57.1,57.2,0,0-.6.8-1.6.8s-1.2-.4-1.4-.6l-34.2-34.1s-1.6-1.5-1.5-3.7h0ZM86.5,117.8c0-.9-.7-1.5-.8-1.6L28.6,59h0c-1-1.2-2.4-2.1-3.7-2.1H.9c-.6,0-.9.5-.9.9s0,.5.3.7l35.4,35.3L.3,129.2c-.3.3-.3.7-.3.9,0,.4.5.7.8.7h23.6c1.3,0,2.6-.6,3.5-1.5h0l21.6-21.6,10.1,10.1-35.5,35.5c-.3.3-.3.6-.3.8,0,.4.4.6.8.7h23.5c2.2.1,3.7-1.5,3.7-1.5l34.1-34.2c.2-.2.6-.6.6-1.4h0ZM153.2,135.8l-34.2-34.1c-.2-.2-.6-.6-1.4-.6s-1.5.7-1.6.8l-57.1,57.1h0c-1.2,1.1-2,2.5-2,3.8v23.9c0,.6.5.9.9.9s.5,0,.7-.3l35.3-35.4,35.3,35.4c.3.3.7.3.9.3.4,0,.7-.5.7-.8v-23.6c0-1.3-.6-2.6-1.5-3.4h0l-21.6-21.6,10.1-10.1,35.5,35.5c.3.3.6.3.8.3.4,0,.6-.4.7-.8v-23.5c.1-2.2-1.5-3.7-1.5-3.7h0ZM151.9,93.7l35.4-35.3c.3-.3.3-.7.3-.9,0-.4-.5-.7-.8-.7h-23.6c-1.3,0-2.6.5-3.4,1.5h0l-21.6,21.6-10.1-10.1,35.5-35.5c.3-.3.3-.6.3-.8,0-.4-.4-.7-.8-.7h-23.5c-2.2-.1-3.7,1.5-3.7,1.5l-34.1,34.2c-.2.2-.6.6-.6,1.4s.7,1.5.8,1.6l57.1,57.1h0c1,1.2,2.4,2.1,3.7,2.1h23.9c.6,0,.9-.5.9-.9s0-.4-.3-.7l-35.4-35.3h0Z"/>
  </g>
</svg>