<?xml version="1.0" encoding="UTF-8"?>
<svg id="hamburger_menu" data-name="hamburger menu" xmlns="http://www.w3.org/2000/svg" viewBox="0 0 581.46 324.14">
  <path d="M556.22,0H92.92c-1.28,0-2.54.12-3.76.33L12.25.14C10.16.01,6.36.07,2.97,1.95.33,3.41.06,4.53.02,4.9c-.13,1.09.56,2.02.95,2.47,25.06,25.3,50.12,50.61,75.19,75.91.66.78,1.39,1.49,2.15,2.17.05.05.09.09.14.14l.03.02c3.2,2.79,7.2,4.69,11.62,5.26l.1.05s0-.02,0-.03c.89.11,1.8.17,2.72.17h479.07c5.23,0,9.47-4.24,9.47-9.47V25.24c0-13.94-11.3-25.24-25.24-25.24Z" style="fill: #fff;"/>
  <path d="M558.78,131.74H182.17c-1.08,0-2.13.11-3.17.29l-63.32-.17c-1.71-.11-4.81-.06-7.57,1.59-2.16,1.28-2.37,2.26-2.41,2.59-.11.96.46,1.77.77,2.16,20.4,22.13,40.79,44.25,61.19,66.38.52.65,1.09,1.26,1.69,1.84l.33.36.14.07c2.52,2.25,5.66,3.82,9.13,4.43l.35.17s0-.08,0-.12c.94.15,1.9.25,2.88.25h389.95c4.43,0,8.01-3.59,8.01-8.01v-50.46c0-11.79-9.56-21.35-21.35-21.35Z" style="fill: #fff;"/>
  <path d="M562.03,252.24h-298.52c-1.08,0-2.14.11-3.16.32,0-.02,0-.04,0-.06l-50.81-.15c-1.36-.1-3.84-.05-6.04,1.43-1.72,1.15-1.89,2.04-1.92,2.33-.08.86.37,1.6.62,1.95,16.03,19.63,32.06,39.26,48.09,58.89.63.97,1.36,1.86,2.18,2.67.06.07.11.14.17.21l.15.08c1.88,1.75,4.18,3.04,6.75,3.7l.76.42v-.22c1.04.22,2.12.33,3.22.33h309.83c3.75,0,6.79-3.04,6.79-6.79v-47.01c0-10-8.1-18.1-18.1-18.1Z" style="fill: #fff;"/>
</svg>