<?xml version="1.0" encoding="UTF-8"?>
<svg id="Layer_2" data-name="Layer 2" xmlns="http://www.w3.org/2000/svg" viewBox="0 0 820 187.64">
  <g id="Logos">
    <g>
      <path d="M229.94,87.27h35.2v14.75h-35.2v28.56h-16.23V56.81h56.17v14.75h-39.94v15.7ZM313.35,56.28l31.62,74.29h-16.97l-6.75-16.55h-31.19l-6.74,16.55h-16.55l31.62-74.29h14.96ZM315.46,99.7l-9.8-23.92-9.8,23.92h19.6ZM401.91,102.23l-34.57-45.42h-14.97v73.77h16.02v-46.9l35.73,46.9h13.8V56.81h-16.02v45.42ZM464.35,86.42c-12.75-3.27-15.91-4.85-15.91-9.69v-.21c0-3.58,3.27-6.43,9.48-6.43s12.65,2.74,19.18,7.27l8.43-12.22c-7.48-6.01-16.65-9.38-27.4-9.38-15.07,0-25.82,8.85-25.82,22.24v.21c0,14.65,9.59,18.76,24.45,22.55,12.33,3.16,14.86,5.27,14.86,9.38v.21c0,4.32-4,6.95-10.65,6.95-8.43,0-15.39-3.48-22.02-8.96l-9.59,11.49c8.85,7.9,20.13,11.8,31.3,11.8,15.91,0,27.08-8.22,27.08-22.87v-.21c0-12.86-8.43-18.23-23.4-22.13ZM546.81,86h-29.93v-29.19h-16.23v73.77h16.23v-29.61h29.93v29.61h16.23V56.81h-16.23v29.19ZM618.36,56.28l31.62,74.29h-16.97l-6.75-16.55h-31.19l-6.75,16.55h-16.54l31.62-74.29h14.96ZM620.47,99.7l-9.8-23.92-9.8,23.92h19.6ZM722.21,106.76l-16.55-50.16h-13.91l-16.54,50.16-15.28-49.95h-17.39l25.19,74.29h14.12l16.65-48.26,16.65,48.26h14.12l25.19-74.29h-16.97l-15.28,49.95ZM779.95,116.14v-15.49h34.78v-14.44h-34.78v-14.97h39.52v-14.44h-55.64v73.77h56.17v-14.44h-40.05Z" fill="#fff"/>
      <path d="M32.61,48.11l-.05-23.52c.04-.34.32-.69.69-.77.26-.05.57-.02.84.26l35.5,35.52,10.11-10.1-21.59-21.59h-.01c-.97-.89-1.52-2.15-1.52-3.46,0-.05,0-23.61,0-23.61.01-.33.28-.72.67-.81.22-.05.55-.07.88.26l35.33,35.43L128.81.31c.23-.22.47-.31.68-.31.38,0,.89.27.89.88v23.91c0,1.31-.84,2.76-2,3.74l-.07.07-57.14,57.11c-.08.06-.62.76-1.57.76-.75,0-1.2-.4-1.37-.55l-34.17-34.13s-1.64-1.51-1.45-3.69ZM86.47,117.76c0-.95-.7-1.49-.76-1.57L28.61,59.05l-.07-.07c-.98-1.16-2.43-2-3.74-2H.88c-.61,0-.88.51-.88.89,0,.21.08.45.31.68l35.42,35.34L.3,129.21c-.32.33-.31.66-.26.88.09.39.48.66.81.68,0,0,23.56,0,23.61,0,1.31,0,2.56-.56,3.45-1.52h0s21.59-21.6,21.59-21.6l10.11,10.11-35.52,35.5c-.28.27-.31.58-.26.84.07.37.43.65.77.69l23.52-.05c2.17.19,3.69-1.45,3.69-1.45l34.13-34.17c.15-.17.55-.62.55-1.37ZM153.17,135.84l-34.17-34.13c-.17-.15-.62-.55-1.37-.55-.95,0-1.49.7-1.57.76l-57.14,57.11-.07.07c-1.16.98-1.99,2.43-1.99,3.74v23.91c0,.61.51.88.89.88.21,0,.45-.08.67-.31l35.34-35.42,35.33,35.43c.33.32.66.31.87.26.4-.09.66-.48.68-.81,0,0,0-23.56,0-23.61,0-1.31-.56-2.57-1.52-3.45h0s-21.58-21.59-21.58-21.59l10.11-10.11,35.5,35.52c.26.28.58.31.84.26.37-.07.65-.43.69-.77l-.05-23.52c.19-2.17-1.45-3.68-1.45-3.68ZM151.95,93.74l35.43-35.33c.32-.33.31-.66.26-.88-.09-.39-.48-.66-.81-.68,0,0-23.56,0-23.61,0-1.31,0-2.57.55-3.45,1.52h0s-21.59,21.59-21.59,21.59l-10.11-10.11,35.52-35.5c.28-.26.31-.58.26-.84-.07-.37-.43-.65-.77-.69l-23.52.05c-2.17-.19-3.69,1.45-3.69,1.45l-34.13,34.17c-.15.17-.55.62-.55,1.37,0,.95.7,1.49.76,1.57l57.11,57.14.07.07c.98,1.15,2.43,1.99,3.74,1.99h23.91c.61,0,.88-.51.88-.89,0-.21-.08-.45-.31-.68l-35.42-35.34Z" fill="#fff"/>
    </g>
  </g>
</svg>