<?xml version="1.0" encoding="UTF-8"?>
<svg id="hamburger_menu" data-name="hamburger menu" xmlns="http://www.w3.org/2000/svg" viewBox="0 0 581.46 324.13">
  <path d="M70.93,69.05V21.99c0-12.15,9.85-21.99,21.99-21.99h463.3c13.94,0,25.24,11.3,25.24,25.24v56.34c0,5.23-4.24,9.47-9.47,9.47H92.92c-12.15,0-21.99-9.85-21.99-21.99ZM90.2,90.91c.03-30.19.06-60.39.09-90.58L12.25.14C10.16.01,6.36.07,2.97,1.95.33,3.41.06,4.53.02,4.9c-.13,1.09.56,2.02.95,2.47,25.82,26.07,51.64,52.15,77.47,78.22" style="fill: #fff;"/>
  <path d="M163.57,192.95v-42.61c0-10.27,8.33-18.6,18.6-18.6h376.61c11.79,0,21.35,9.56,21.35,21.35v50.46c0,4.42-3.58,8.01-8.01,8.01H182.17c-10.27,0-18.6-8.33-18.6-18.6ZM179.29,211.43c.02-26.47.05-52.93.07-79.4l-63.68-.17c-1.71-.11-4.81-.06-7.57,1.59-2.16,1.28-2.37,2.26-2.41,2.59-.11.96.46,1.77.77,2.16,21.07,22.86,42.14,45.71,63.21,68.57" style="fill: #fff;"/>
  <path d="M247.74,308.37v-40.36c0-8.71,7.06-15.77,15.77-15.77h298.52c10,0,18.1,8.1,18.1,18.1v47.01c0,3.75-3.04,6.79-6.79,6.79h-309.83c-8.71,0-15.77-7.06-15.77-15.77ZM260.29,324.03c.02-23.84.04-47.69.06-71.53l-50.81-.15c-1.36-.1-3.84-.05-6.04,1.43-1.72,1.15-1.89,2.04-1.92,2.33-.08.86.37,1.6.62,1.95,16.81,20.59,33.62,41.18,50.44,61.77" style="fill: #fff;"/>
</svg>